<svg width="695" height="418" viewBox="0 0 695 418" fill="none" xmlns="http://www.w3.org/2000/svg">
<path d="M691.057 385.8H661.322V21.8984C661.322 10.1089 651.713 0.5 639.925 0.5H54.5602C42.762 0.5 33.1681 10.1089 33.1681 21.8984V385.8H3.41603C1.80587 385.8 0.5 387.106 0.5 388.718V391.653C0.5 398.456 4.15404 404.993 10.6929 410.059C16.5825 414.616 24.1325 417.334 30.9733 417.336H663.502C670.355 417.334 677.902 414.616 683.797 410.059C690.338 404.993 693.98 398.456 693.98 391.653V388.718C693.98 387.106 692.686 385.8 691.057 385.8Z" fill="white" stroke="#999999" stroke-width="0.999999"/>
<path d="M688.652 392.008C687.693 396.168 683.916 402.57 680.011 405.542C675.243 409.196 668.183 411.506 662.648 411.501H31.8268C26.3062 411.504 19.2492 409.196 14.4642 405.542C10.5682 402.57 6.77707 396.168 5.81616 392.008H688.652Z" fill="#FAFAFA" stroke="#999999" stroke-width="0.999999"/>
<path d="M67.9422 364.519H626.531C628.16 364.516 629.454 363.21 629.454 361.6V38.2887C629.454 36.6593 628.16 35.3653 626.531 35.3653H67.9422C66.332 35.3653 65.0262 36.6593 65.0238 38.2887V361.6C65.0262 363.213 66.332 364.516 67.9422 364.519ZM54.5601 6.34692H639.925C644.214 6.34692 648.095 8.09616 650.923 10.8998C653.726 13.7273 655.475 17.6092 655.475 21.8985V385.8H39.0024V21.8985C39.0024 17.6092 40.7443 13.7273 43.5645 10.8998C46.3823 8.09616 50.2688 6.34692 54.5601 6.34692Z" fill="#FAFAFA" stroke="#999999"/>
</svg>
